# Blender 4.2.2 LTS
# www.blender.org
mtllib pied gauche.mtl
o Cube.002
v 0.233340 0.771004 -0.790157
v 0.279334 -0.711298 -0.780706
v 0.234658 0.775583 -0.078317
v 0.280652 -0.706719 -0.068866
v -0.161618 0.758754 -0.789346
v -0.115623 -0.723548 -0.779896
v -0.160300 0.763333 -0.077506
v -0.114305 -0.718969 -0.068056
vn 0.8432 0.2501 -0.4759
vn 0.8573 -0.2034 -0.4730
vn 0.8450 0.2562 0.4695
vn 0.8590 -0.1973 0.4724
vn -0.8590 0.1973 -0.4724
vn -0.8450 -0.2562 -0.4695
vn -0.8573 0.2034 0.4730
vn -0.8432 -0.2501 0.4759
vt 0.625000 0.500000
vt 0.875000 0.500000
vt 0.875000 0.750000
vt 0.625000 0.750000
vt 0.375000 0.750000
vt 0.625000 1.000000
vt 0.375000 1.000000
vt 0.375000 0.000000
vt 0.625000 0.000000
vt 0.625000 0.250000
vt 0.375000 0.250000
vt 0.125000 0.500000
vt 0.375000 0.500000
vt 0.125000 0.750000
s 1
usemtl Material.002
f 1/1/1 5/2/5 7/3/7 3/4/3
f 4/5/4 3/4/3 7/6/7 8/7/8
f 8/8/8 7/9/7 5/10/5 6/11/6
f 6/12/6 2/13/2 4/5/4 8/14/8
f 2/13/2 1/1/1 3/4/3 4/5/4
f 6/11/6 5/10/5 1/1/1 2/13/2
o Cube.017
v 0.233340 0.771004 -0.790157
v 0.279334 -0.711298 -0.780706
v 0.234658 0.775583 -0.078317
v 0.280652 -0.706719 -0.068866
v -0.161618 0.758754 -0.789346
v -0.115623 -0.723548 -0.779896
v -0.160300 0.763333 -0.077506
v -0.114305 -0.718969 -0.068056
vn -0.0310 0.9995 -0.0064
vn 0.0019 0.0064 1.0000
vn -0.9995 -0.0310 0.0021
vn 0.0310 -0.9995 0.0064
vn 0.9995 0.0310 -0.0021
vn -0.0019 -0.0064 -1.0000
vt 0.625000 0.500000
vt 0.875000 0.500000
vt 0.875000 0.750000
vt 0.625000 0.750000
vt 0.375000 0.750000
vt 0.625000 1.000000
vt 0.375000 1.000000
vt 0.375000 0.000000
vt 0.625000 0.000000
vt 0.625000 0.250000
vt 0.375000 0.250000
vt 0.125000 0.500000
vt 0.375000 0.500000
vt 0.125000 0.750000
s 0
usemtl Material.028
f 9/15/9 13/16/9 15/17/9 11/18/9
f 12/19/10 11/18/10 15/20/10 16/21/10
f 16/22/11 15/23/11 13/24/11 14/25/11
f 14/26/12 10/27/12 12/19/12 16/28/12
f 10/27/13 9/15/13 11/18/13 12/19/13
f 14/25/14 13/24/14 9/15/14 10/27/14
