# Blender 4.2.2 LTS
# www.blender.org
mtllib queue 3.mtl
o Cube.006
v 2.773506 1.107168 -0.404096
v 3.647528 1.108919 -0.398527
v 2.768538 1.108757 0.375046
v 3.642561 1.110509 0.380614
v 2.774200 0.758393 -0.403380
v 3.648222 0.760144 -0.397811
v 2.769233 0.759982 0.375762
v 3.643255 0.761733 0.381330
vn -0.3415 0.8561 -0.3878
vn 0.3430 0.8575 -0.3835
vn -0.3464 0.8577 0.3799
vn 0.3381 0.8591 0.3843
vn -0.3381 -0.8591 -0.3843
vn 0.3464 -0.8577 -0.3799
vn -0.3430 -0.8575 0.3835
vn 0.3415 -0.8561 0.3878
vt 0.625000 0.500000
vt 0.875000 0.500000
vt 0.875000 0.750000
vt 0.625000 0.750000
vt 0.375000 0.750000
vt 0.625000 1.000000
vt 0.375000 1.000000
vt 0.375000 0.000000
vt 0.625000 0.000000
vt 0.625000 0.250000
vt 0.375000 0.250000
vt 0.125000 0.500000
vt 0.375000 0.500000
vt 0.125000 0.750000
s 1
usemtl Material.006
f 1/1/1 5/2/5 7/3/7 3/4/3
f 4/5/4 3/4/3 7/6/7 8/7/8
f 8/8/8 7/9/7 5/10/5 6/11/6
f 6/12/6 2/13/2 4/5/4 8/14/8
f 2/13/2 1/1/1 3/4/3 4/5/4
f 6/11/6 5/10/5 1/1/1 2/13/2
