# Blender 4.2.2 LTS
# www.blender.org
mtllib tete.mtl
o Cube.007
v -2.252189 3.620683 -0.579262
v -0.953987 3.719505 -0.570966
v -2.259515 3.622439 0.546124
v -0.961313 3.721262 0.554421
v -2.175335 2.610896 -0.577186
v -0.877133 2.709719 -0.568889
v -2.182661 2.612653 0.548201
v -0.884458 2.711475 0.556497
vn -0.5442 0.6028 -0.5836
vn 0.4540 0.6788 -0.5772
vn -0.5517 0.6046 0.5746
vn 0.4465 0.6806 0.5809
vn -0.4465 -0.6806 -0.5809
vn 0.5517 -0.6046 -0.5746
vn -0.4540 -0.6788 0.5772
vn 0.5442 -0.6028 0.5836
vt 0.625000 0.500000
vt 0.875000 0.500000
vt 0.875000 0.750000
vt 0.625000 0.750000
vt 0.375000 0.750000
vt 0.625000 1.000000
vt 0.375000 1.000000
vt 0.375000 0.000000
vt 0.625000 0.000000
vt 0.625000 0.250000
vt 0.375000 0.250000
vt 0.125000 0.500000
vt 0.375000 0.500000
vt 0.125000 0.750000
s 1
usemtl Material.007
f 1/1/1 5/2/5 7/3/7 3/4/3
f 4/5/4 3/4/3 7/6/7 8/7/8
f 8/8/8 7/9/7 5/10/5 6/11/6
f 6/12/6 2/13/2 4/5/4 8/14/8
f 2/13/2 1/1/1 3/4/3 4/5/4
f 6/11/6 5/10/5 1/1/1 2/13/2
o Cube.008
v -2.728772 3.210751 -0.446397
v -2.182952 3.252300 -0.442909
v -2.734406 3.212102 0.418999
v -2.188586 3.253651 0.422487
v -2.686390 2.653894 -0.445252
v -2.140570 2.695443 -0.441764
v -2.692023 2.655245 0.420144
v -2.146203 2.696794 0.423632
vn -0.6947 0.5861 -0.4171
vn 0.6032 0.6848 -0.4088
vn -0.7000 0.5873 0.4062
vn 0.5978 0.6861 0.4145
vn -0.5978 -0.6861 -0.4145
vn 0.7000 -0.5873 -0.4062
vn -0.6032 -0.6848 0.4088
vn 0.6947 -0.5861 0.4171
vt 0.625000 0.500000
vt 0.875000 0.500000
vt 0.875000 0.750000
vt 0.625000 0.750000
vt 0.375000 0.750000
vt 0.625000 1.000000
vt 0.375000 1.000000
vt 0.375000 0.000000
vt 0.625000 0.000000
vt 0.625000 0.250000
vt 0.375000 0.250000
vt 0.125000 0.500000
vt 0.375000 0.500000
vt 0.125000 0.750000
s 1
usemtl Material.008
f 9/15/9 13/16/13 15/17/15 11/18/11
f 12/19/12 11/18/11 15/20/15 16/21/16
f 16/22/16 15/23/15 13/24/13 14/25/14
f 14/26/14 10/27/10 12/19/12 16/28/16
f 10/27/10 9/15/9 11/18/11 12/19/12
f 14/25/14 13/24/13 9/15/9 10/27/10
